<svg xmlns="http://www.w3.org/2000/svg" xmlns:xlink="http://www.w3.org/1999/xlink" width="500" zoomAndPan="magnify" viewBox="0 0 375 374.999991" height="500" preserveAspectRatio="xMidYMid meet" version="1.0"><defs><g/><clipPath id="df36196c91"><path d="M 180 96 L 243.296875 96 L 243.296875 147 L 180 147 Z M 180 96 " clip-rule="nonzero"/></clipPath><clipPath id="5bd4165064"><path d="M 116.367188 96 L 179.675781 96 L 179.675781 147 L 116.367188 147 Z M 116.367188 96 " clip-rule="nonzero"/></clipPath></defs><g clip-path="url(#df36196c91)"><path fill="#96d876" d="M 229.246094 103.605469 C 199.253906 103.46875 183.152344 117.472656 181.773438 146.460938 C 181.757812 146.824219 181.222656 146.84375 181.171875 146.480469 C 179.835938 137.011719 180.09375 128.378906 182.496094 120.878906 C 190.433594 96.113281 220.695312 92.867188 242.167969 100.703125 C 243.234375 101.09375 243.453125 102.472656 242.5625 103.1875 C 225.8125 116.578125 228.09375 153.128906 187.328125 137.289062 C 193.695312 117.503906 206.746094 105.242188 229.246094 103.605469 " fill-opacity="1" fill-rule="evenodd"/></g><g clip-path="url(#5bd4165064)"><path fill="#96d876" d="M 130.421875 103.605469 C 160.414062 103.46875 176.515625 117.472656 177.890625 146.460938 C 177.910156 146.824219 178.441406 146.84375 178.492188 146.480469 C 179.832031 137.011719 179.570312 128.378906 177.167969 120.878906 C 169.234375 96.113281 138.972656 92.867188 117.5 100.703125 C 116.429688 101.09375 116.214844 102.472656 117.101562 103.1875 C 133.851562 116.578125 131.570312 153.128906 172.339844 137.289062 C 165.972656 117.503906 152.917969 105.242188 130.421875 103.605469 " fill-opacity="1" fill-rule="evenodd"/></g><g fill="#004438" fill-opacity="1"><g transform="translate(87.110822, 179.946943)"><g><path d="M 13.015625 0 C 13.3125 0 13.40625 -0.140625 13.359375 -0.421875 L 9.296875 -19.234375 C 9.25 -19.484375 9.109375 -19.578125 8.875 -19.578125 L 5.484375 -19.578125 C 5.265625 -19.578125 5.109375 -19.484375 5.0625 -19.234375 L 1 -0.421875 C 0.9375 -0.140625 1.046875 0 1.328125 0 L 3.9375 0 C 4.15625 0 4.28125 -0.125 4.328125 -0.34375 L 4.984375 -3.921875 L 9.34375 -3.921875 L 10.03125 -0.34375 C 10.078125 -0.125 10.203125 0 10.421875 0 Z M 8.734375 -6.75 L 5.609375 -6.75 L 7.171875 -15.296875 Z M 8.734375 -6.75 "/></g></g></g><g fill="#004438" fill-opacity="1"><g transform="translate(101.438418, 179.946943)"><g><path d="M 11.015625 -13.609375 C 11.015625 -15.90625 9.78125 -17.125 7.484375 -17.125 L 1.609375 -17.125 C 1.375 -17.125 1.21875 -16.984375 1.21875 -16.734375 L 1.21875 -0.390625 C 1.21875 -0.140625 1.375 0 1.609375 0 L 4.015625 0 C 4.25 0 4.40625 -0.140625 4.40625 -0.390625 L 4.40625 -5.15625 L 6.578125 -5.15625 L 7.75 -0.34375 C 7.8125 -0.125 7.921875 0 8.171875 0 L 10.578125 0 C 10.84375 0 10.984375 -0.140625 10.90625 -0.4375 L 9.640625 -5.703125 C 10.546875 -6.265625 11.015625 -7.265625 11.015625 -8.6875 Z M 4.40625 -8.3125 L 4.40625 -13.96875 L 6.84375 -13.96875 C 7.484375 -13.96875 7.828125 -13.625 7.828125 -13 L 7.828125 -9.296875 C 7.828125 -8.65625 7.484375 -8.3125 6.84375 -8.3125 Z M 4.40625 -8.3125 "/></g></g></g><g fill="#004438" fill-opacity="1"><g transform="translate(113.663333, 179.946943)"><g><path d="M 1.21875 -3.53125 C 1.21875 -1.21875 2.453125 0 4.75 0 L 7.484375 0 C 9.78125 0 11.015625 -1.21875 11.015625 -3.53125 L 11.015625 -13.609375 C 11.015625 -15.90625 9.78125 -17.125 7.484375 -17.125 L 4.75 -17.125 C 2.453125 -17.125 1.21875 -15.90625 1.21875 -13.609375 Z M 5.390625 -3.15625 C 4.75 -3.15625 4.40625 -3.46875 4.40625 -4.140625 L 4.40625 -13 C 4.40625 -13.625 4.75 -13.96875 5.390625 -13.96875 L 6.953125 -13.96875 C 7.578125 -13.96875 7.921875 -13.625 7.921875 -13 L 7.921875 -4.140625 C 7.921875 -3.46875 7.578125 -3.15625 6.953125 -3.15625 Z M 5.390625 -3.15625 "/></g></g></g><g fill="#004438" fill-opacity="1"><g transform="translate(125.888249, 179.946943)"><g><path d="M 11.453125 -17.125 C 11.15625 -17.125 10.984375 -16.984375 10.90625 -16.71875 L 8.203125 -5.796875 L 5.484375 -16.71875 C 5.40625 -16.984375 5.234375 -17.125 4.9375 -17.125 L 1.71875 -17.125 C 1.390625 -17.125 1.21875 -16.953125 1.21875 -16.640625 L 1.21875 -0.484375 C 1.21875 -0.171875 1.390625 0 1.71875 0 L 3.96875 0 C 4.28125 0 4.453125 -0.171875 4.453125 -0.484375 L 4.453125 -10.109375 L 4.625 -10.109375 L 6.921875 -0.421875 C 7 -0.140625 7.171875 0 7.46875 0 L 8.90625 0 C 9.203125 0 9.375 -0.140625 9.4375 -0.421875 L 11.75 -10.109375 L 11.921875 -10.109375 L 11.921875 -0.484375 C 11.921875 -0.171875 12.09375 0 12.40625 0 L 14.6875 0 C 15 0 15.171875 -0.171875 15.171875 -0.484375 L 15.171875 -16.640625 C 15.171875 -16.953125 15 -17.125 14.6875 -17.125 Z M 11.453125 -17.125 "/></g></g></g><g fill="#004438" fill-opacity="1"><g transform="translate(142.269627, 179.946943)"><g><path d="M 12.765625 0 C 13.0625 0 13.1875 -0.140625 13.109375 -0.421875 L 9.046875 -16.78125 C 9 -17.03125 8.859375 -17.125 8.640625 -17.125 L 5.234375 -17.125 C 5.015625 -17.125 4.875 -17.03125 4.828125 -16.78125 L 0.765625 -0.421875 C 0.6875 -0.140625 0.8125 0 1.078125 0 L 3.46875 0 C 3.6875 0 3.8125 -0.125 3.859375 -0.34375 L 4.625 -3.421875 L 9.21875 -3.421875 L 10 -0.34375 C 10.0625 -0.125 10.171875 0 10.40625 0 Z M 8.46875 -6.265625 L 5.390625 -6.265625 L 6.921875 -12.921875 Z M 8.46875 -6.265625 "/></g></g></g><g fill="#004438" fill-opacity="1"><g transform="translate(156.132677, 179.946943)"><g/></g></g><g fill="#004438" fill-opacity="1"><g transform="translate(162.245128, 179.946943)"><g><path d="M 10.984375 -19.1875 C 10.984375 -19.421875 10.890625 -19.578125 10.59375 -19.578125 L 1.59375 -19.578125 C 1.375 -19.578125 1.21875 -19.421875 1.21875 -19.1875 L 1.21875 -0.390625 C 1.21875 -0.140625 1.375 0 1.59375 0 L 10.59375 0 C 10.890625 0 10.984375 -0.140625 10.984375 -0.390625 L 10.984375 -2.84375 C 10.984375 -3.109375 10.890625 -3.234375 10.59375 -3.234375 L 4.484375 -3.234375 L 4.484375 -8.171875 L 9.15625 -8.171875 C 9.390625 -8.171875 9.546875 -8.3125 9.546875 -8.59375 L 9.546875 -11.015625 C 9.546875 -11.28125 9.390625 -11.421875 9.15625 -11.421875 L 4.484375 -11.421875 L 4.484375 -16.328125 L 10.59375 -16.328125 C 10.890625 -16.328125 10.984375 -16.484375 10.984375 -16.734375 Z M 10.984375 -19.1875 "/></g></g></g><g fill="#004438" fill-opacity="1"><g transform="translate(174.445596, 179.946943)"><g><path d="M 1.21875 -3.53125 C 1.21875 -1.21875 2.453125 0 4.75 0 L 7.484375 0 C 9.765625 0 11.015625 -1.21875 11.015625 -3.53125 L 11.015625 -9.109375 C 11.015625 -9.375 10.859375 -9.5 10.625 -9.5 L 6.65625 -9.5 C 6.390625 -9.5 6.265625 -9.375 6.265625 -9.109375 L 6.265625 -6.65625 C 6.265625 -6.40625 6.390625 -6.265625 6.65625 -6.265625 L 7.921875 -6.265625 L 7.921875 -4.140625 C 7.921875 -3.46875 7.578125 -3.15625 6.953125 -3.15625 L 5.390625 -3.15625 C 4.75 -3.15625 4.40625 -3.46875 4.40625 -4.140625 L 4.40625 -13 C 4.40625 -13.625 4.71875 -13.96875 5.390625 -13.96875 L 6.953125 -13.96875 C 7.578125 -13.96875 7.921875 -13.625 7.921875 -13 L 7.921875 -11.796875 C 7.921875 -11.546875 8.046875 -11.40625 8.3125 -11.40625 L 10.625 -11.40625 C 10.859375 -11.40625 11.015625 -11.546875 11.015625 -11.796875 L 11.015625 -13.609375 C 11.015625 -15.90625 9.765625 -17.125 7.484375 -17.125 L 4.75 -17.125 C 2.453125 -17.125 1.21875 -15.90625 1.21875 -13.609375 Z M 1.21875 -3.53125 "/></g></g></g><g fill="#004438" fill-opacity="1"><g transform="translate(186.670511, 179.946943)"><g><path d="M 9.734375 -17.125 C 9.4375 -17.125 9.28125 -16.984375 9.171875 -16.734375 L 6.4375 -10.453125 L 3.6875 -16.734375 C 3.59375 -16.984375 3.421875 -17.125 3.125 -17.125 L 0.6875 -17.125 C 0.3125 -17.125 0.140625 -16.890625 0.296875 -16.5625 L 4.765625 -6.40625 L 4.765625 -0.484375 C 4.765625 -0.171875 4.9375 0 5.265625 0 L 7.609375 0 C 7.921875 0 8.09375 -0.171875 8.09375 -0.484375 L 8.09375 -6.40625 L 12.578125 -16.5625 C 12.71875 -16.890625 12.546875 -17.125 12.1875 -17.125 Z M 9.734375 -17.125 "/></g></g></g><g fill="#004438" fill-opacity="1"><g transform="translate(199.531125, 179.946943)"><g/></g></g><g fill="#5fa43e" fill-opacity="1"><g transform="translate(205.64911, 179.946943)"><g><path d="M 4.75 -19.578125 C 2.46875 -19.578125 1.21875 -18.34375 1.21875 -16.046875 L 1.21875 -10.28125 C 1.21875 -9.8125 1.4375 -9.515625 1.890625 -9.375 L 7.6875 -7.46875 L 7.6875 -4.203125 C 7.6875 -3.546875 7.34375 -3.234375 6.703125 -3.234375 L 5.53125 -3.234375 C 4.921875 -3.234375 4.546875 -3.546875 4.546875 -4.203125 L 4.546875 -6.09375 C 4.546875 -6.359375 4.421875 -6.484375 4.15625 -6.484375 L 1.609375 -6.484375 C 1.375 -6.484375 1.21875 -6.359375 1.21875 -6.09375 L 1.21875 -3.53125 C 1.21875 -1.21875 2.46875 0 4.75 0 L 7.484375 0 C 9.78125 0 11.015625 -1.21875 11.015625 -3.53125 L 11.015625 -9.171875 C 11.015625 -9.640625 10.796875 -9.90625 10.375 -10.078125 L 4.546875 -11.984375 L 4.546875 -15.359375 C 4.546875 -16 4.921875 -16.34375 5.53125 -16.34375 L 6.703125 -16.34375 C 7.359375 -16.34375 7.6875 -16 7.6875 -15.359375 L 7.6875 -13.453125 C 7.6875 -13.21875 7.828125 -13.0625 8.078125 -13.0625 L 10.625 -13.0625 C 10.890625 -13.0625 11.015625 -13.21875 11.015625 -13.453125 L 11.015625 -16.046875 C 11.015625 -18.34375 9.78125 -19.578125 7.484375 -19.578125 Z M 4.75 -19.578125 "/></g></g></g><g fill="#5fa43e" fill-opacity="1"><g transform="translate(217.874025, 179.946943)"><g><path d="M 1.21875 -0.390625 C 1.21875 -0.140625 1.375 0 1.609375 0 L 4.015625 0.03125 C 4.28125 0.03125 4.40625 -0.125 4.40625 -0.359375 L 4.40625 -5.265625 L 7.484375 -5.28125 C 9.78125 -5.3125 11.015625 -6.53125 11.015625 -8.8125 L 11.015625 -13.609375 C 11.015625 -15.90625 9.78125 -17.125 7.484375 -17.125 L 1.609375 -17.125 C 1.375 -17.125 1.21875 -16.984375 1.21875 -16.734375 Z M 4.40625 -8.421875 L 4.40625 -13.953125 L 6.84375 -13.96875 C 7.515625 -13.96875 7.828125 -13.625 7.828125 -13 L 7.828125 -9.421875 C 7.828125 -8.8125 7.515625 -8.4375 6.84375 -8.4375 Z M 4.40625 -8.421875 "/></g></g></g><g fill="#5fa43e" fill-opacity="1"><g transform="translate(230.098941, 179.946943)"><g><path d="M 1.609375 0 C 1.34375 0 1.21875 -0.140625 1.21875 -0.390625 L 1.21875 -16.734375 C 1.21875 -16.984375 1.34375 -17.125 1.609375 -17.125 L 4.15625 -17.125 C 4.40625 -17.125 4.546875 -16.984375 4.546875 -16.734375 L 4.546875 -0.390625 C 4.546875 -0.140625 4.40625 0 4.15625 0 Z M 1.609375 0 "/></g></g></g><g fill="#5fa43e" fill-opacity="1"><g transform="translate(235.869102, 179.946943)"><g><path d="M 11.03125 -13.609375 C 11.03125 -15.90625 9.78125 -17.125 7.515625 -17.125 L 4.765625 -17.125 C 2.46875 -17.125 1.21875 -15.90625 1.21875 -13.609375 L 1.21875 -3.53125 C 1.21875 -1.21875 2.46875 0 4.765625 0 L 7.515625 0 C 9.78125 0 11.03125 -1.21875 11.03125 -3.53125 L 11.03125 -6.171875 C 11.03125 -6.40625 10.890625 -6.5625 10.640625 -6.5625 L 8.34375 -6.5625 C 8.078125 -6.5625 7.953125 -6.40625 7.953125 -6.171875 L 7.953125 -4.09375 C 7.953125 -3.421875 7.609375 -3.109375 6.96875 -3.109375 L 5.40625 -3.109375 C 4.765625 -3.109375 4.421875 -3.421875 4.421875 -4.09375 L 4.421875 -12.96875 C 4.421875 -13.609375 4.75 -13.953125 5.40625 -13.953125 L 6.96875 -13.953125 C 7.609375 -13.953125 7.953125 -13.609375 7.953125 -12.96875 L 7.953125 -10.96875 C 7.953125 -10.71875 8.078125 -10.578125 8.34375 -10.578125 L 10.640625 -10.578125 C 10.890625 -10.578125 11.03125 -10.71875 11.03125 -10.96875 Z M 11.03125 -13.609375 "/></g></g></g><g fill="#5fa43e" fill-opacity="1"><g transform="translate(248.118467, 179.946943)"><g><path d="M 10.984375 -16.734375 C 10.984375 -16.984375 10.890625 -17.125 10.59375 -17.125 L 1.59375 -17.125 C 1.375 -17.125 1.21875 -16.984375 1.21875 -16.734375 L 1.21875 -0.390625 C 1.21875 -0.140625 1.375 0 1.59375 0 L 10.59375 0 C 10.890625 0 10.984375 -0.140625 10.984375 -0.390625 L 10.984375 -2.84375 C 10.984375 -3.109375 10.890625 -3.234375 10.59375 -3.234375 L 4.546875 -3.234375 L 4.546875 -6.84375 L 9.15625 -6.84375 C 9.390625 -6.84375 9.546875 -7 9.546875 -7.265625 L 9.546875 -9.6875 C 9.546875 -9.953125 9.390625 -10.109375 9.15625 -10.109375 L 4.546875 -10.109375 L 4.546875 -13.875 L 10.59375 -13.875 C 10.890625 -13.875 10.984375 -14.046875 10.984375 -14.296875 Z M 10.984375 -16.734375 "/></g></g></g><g fill="#5fa43e" fill-opacity="1"><g transform="translate(260.318934, 179.946943)"><g><path d="M 4.75 -17.125 C 2.46875 -17.125 1.21875 -15.90625 1.21875 -13.609375 L 1.21875 -9.375 C 1.21875 -8.90625 1.4375 -8.609375 1.890625 -8.46875 L 7.75 -6.5625 L 7.75 -4.09375 C 7.75 -3.421875 7.40625 -3.109375 6.78125 -3.109375 L 5.453125 -3.109375 C 4.84375 -3.109375 4.484375 -3.421875 4.484375 -4.09375 L 4.484375 -5.109375 C 4.484375 -5.390625 4.359375 -5.5 4.09375 -5.5 L 1.609375 -5.5 C 1.375 -5.5 1.21875 -5.390625 1.21875 -5.109375 L 1.21875 -3.53125 C 1.21875 -1.21875 2.46875 0 4.75 0 L 7.484375 0 C 9.78125 0 11.015625 -1.21875 11.015625 -3.53125 L 11.015625 -8.125 C 11.015625 -8.59375 10.796875 -8.875 10.375 -9.03125 L 4.453125 -10.9375 L 4.453125 -13.015625 C 4.453125 -13.65625 4.828125 -14 5.4375 -14 L 6.78125 -14 C 7.4375 -14 7.75 -13.65625 7.75 -13.015625 L 7.75 -11.984375 C 7.75 -11.75 7.90625 -11.59375 8.140625 -11.59375 L 10.625 -11.59375 C 10.890625 -11.59375 11.015625 -11.75 11.015625 -11.984375 L 11.015625 -13.609375 C 11.015625 -15.90625 9.78125 -17.125 7.484375 -17.125 Z M 4.75 -17.125 "/></g></g></g><g fill="#004438" fill-opacity="1"><g transform="translate(5.906819, 208.574386)"><g><path d="M 1.3125 -14.96875 L 10.09375 -14.96875 L 10.09375 -12.484375 L 4.09375 -12.484375 L 4.09375 -8.703125 L 9.234375 -8.703125 L 9.234375 -6.21875 L 4.09375 -6.21875 L 4.09375 0 L 1.3125 0 Z M 1.3125 -14.96875 "/></g></g></g><g fill="#004438" fill-opacity="1"><g transform="translate(16.832882, 208.574386)"><g><path d="M 5.46875 0.265625 C 3.925781 0.265625 2.773438 -0.21875 2.015625 -1.1875 C 1.265625 -2.164062 0.890625 -3.679688 0.890625 -5.734375 C 0.890625 -7.785156 1.265625 -9.296875 2.015625 -10.265625 C 2.773438 -11.242188 3.925781 -11.734375 5.46875 -11.734375 C 7.007812 -11.734375 8.160156 -11.242188 8.921875 -10.265625 C 9.679688 -9.296875 10.0625 -7.785156 10.0625 -5.734375 C 10.0625 -3.679688 9.679688 -2.164062 8.921875 -1.1875 C 8.160156 -0.21875 7.007812 0.265625 5.46875 0.265625 Z M 5.46875 -1.9375 C 6.125 -1.9375 6.597656 -2.21875 6.890625 -2.78125 C 7.179688 -3.34375 7.328125 -4.191406 7.328125 -5.328125 L 7.328125 -6.15625 C 7.328125 -7.289062 7.179688 -8.132812 6.890625 -8.6875 C 6.597656 -9.25 6.125 -9.53125 5.46875 -9.53125 C 4.820312 -9.53125 4.351562 -9.25 4.0625 -8.6875 C 3.769531 -8.132812 3.625 -7.289062 3.625 -6.15625 L 3.625 -5.328125 C 3.625 -4.191406 3.769531 -3.34375 4.0625 -2.78125 C 4.351562 -2.21875 4.820312 -1.9375 5.46875 -1.9375 Z M 5.46875 -1.9375 "/></g></g></g><g fill="#004438" fill-opacity="1"><g transform="translate(27.758945, 208.574386)"><g><path d="M 1.203125 -11.46875 L 3.375 -11.46875 L 3.6875 -9.796875 L 3.8125 -9.796875 C 4 -10.378906 4.242188 -10.847656 4.546875 -11.203125 C 4.859375 -11.554688 5.273438 -11.734375 5.796875 -11.734375 C 6.078125 -11.734375 6.316406 -11.707031 6.515625 -11.65625 C 6.722656 -11.601562 6.847656 -11.570312 6.890625 -11.5625 L 6.890625 -9.03125 L 5.953125 -9.03125 C 5.316406 -9.03125 4.800781 -8.828125 4.40625 -8.421875 C 4.007812 -8.015625 3.8125 -7.335938 3.8125 -6.390625 L 3.8125 0 L 1.203125 0 Z M 1.203125 -11.46875 "/></g></g></g><g fill="#004438" fill-opacity="1"><g transform="translate(34.715853, 208.574386)"><g/></g></g><g fill="#004438" fill-opacity="1"><g transform="translate(39.688196, 208.574386)"><g><path d="M 1.09375 -14.96875 L 3.875 -14.96875 L 3.875 0 L 1.09375 0 Z M 1.09375 -14.96875 "/></g></g></g><g fill="#004438" fill-opacity="1"><g transform="translate(44.66054, 208.574386)"><g><path d="M 1.203125 -11.46875 L 3.375 -11.46875 L 3.640625 -10.0625 L 3.78125 -10.0625 C 4.082031 -10.550781 4.460938 -10.953125 4.921875 -11.265625 C 5.378906 -11.578125 5.90625 -11.734375 6.5 -11.734375 C 7.71875 -11.734375 8.539062 -11.175781 8.96875 -10.0625 C 9.28125 -10.550781 9.691406 -10.953125 10.203125 -11.265625 C 10.710938 -11.578125 11.289062 -11.734375 11.9375 -11.734375 C 13.820312 -11.734375 14.765625 -10.503906 14.765625 -8.046875 L 14.765625 0 L 12.15625 0 L 12.15625 -7.328125 C 12.15625 -8.054688 12.050781 -8.578125 11.84375 -8.890625 C 11.632812 -9.203125 11.304688 -9.359375 10.859375 -9.359375 C 10.421875 -9.359375 10.046875 -9.15625 9.734375 -8.75 C 9.421875 -8.351562 9.265625 -7.847656 9.265625 -7.234375 L 9.265625 0 L 6.703125 0 L 6.703125 -7.328125 C 6.703125 -8.054688 6.59375 -8.578125 6.375 -8.890625 C 6.164062 -9.203125 5.835938 -9.359375 5.390625 -9.359375 C 4.941406 -9.359375 4.566406 -9.144531 4.265625 -8.71875 C 3.960938 -8.289062 3.8125 -7.738281 3.8125 -7.0625 L 3.8125 0 L 1.203125 0 Z M 1.203125 -11.46875 "/></g></g></g><g fill="#004438" fill-opacity="1"><g transform="translate(60.558934, 208.574386)"><g><path d="M 1.203125 -11.46875 L 3.375 -11.46875 L 3.640625 -10.0625 L 3.75 -10.0625 C 4.03125 -10.613281 4.394531 -11.03125 4.84375 -11.3125 C 5.289062 -11.59375 5.789062 -11.734375 6.34375 -11.734375 C 7.507812 -11.734375 8.414062 -11.234375 9.0625 -10.234375 C 9.707031 -9.242188 10.03125 -7.738281 10.03125 -5.71875 C 10.03125 -3.71875 9.707031 -2.21875 9.0625 -1.21875 C 8.414062 -0.226562 7.554688 0.265625 6.484375 0.265625 C 5.898438 0.265625 5.378906 0.140625 4.921875 -0.109375 C 4.460938 -0.367188 4.128906 -0.722656 3.921875 -1.171875 L 3.8125 -1.171875 L 3.8125 3.78125 L 1.203125 3.78125 Z M 5.5625 -2.109375 C 6.175781 -2.109375 6.617188 -2.375 6.890625 -2.90625 C 7.171875 -3.4375 7.3125 -4.242188 7.3125 -5.328125 L 7.3125 -6.15625 C 7.3125 -7.226562 7.171875 -8.03125 6.890625 -8.5625 C 6.617188 -9.09375 6.175781 -9.359375 5.5625 -9.359375 C 4.945312 -9.359375 4.5 -9.09375 4.21875 -8.5625 C 3.945312 -8.03125 3.8125 -7.226562 3.8125 -6.15625 L 3.8125 -5.359375 C 3.8125 -4.285156 3.945312 -3.472656 4.21875 -2.921875 C 4.5 -2.378906 4.945312 -2.109375 5.5625 -2.109375 Z M 5.5625 -2.109375 "/></g></g></g><g fill="#004438" fill-opacity="1"><g transform="translate(71.484997, 208.574386)"><g><path d="M 5.46875 0.265625 C 3.925781 0.265625 2.773438 -0.21875 2.015625 -1.1875 C 1.265625 -2.164062 0.890625 -3.679688 0.890625 -5.734375 C 0.890625 -7.785156 1.265625 -9.296875 2.015625 -10.265625 C 2.773438 -11.242188 3.925781 -11.734375 5.46875 -11.734375 C 7.007812 -11.734375 8.160156 -11.242188 8.921875 -10.265625 C 9.679688 -9.296875 10.0625 -7.785156 10.0625 -5.734375 C 10.0625 -3.679688 9.679688 -2.164062 8.921875 -1.1875 C 8.160156 -0.21875 7.007812 0.265625 5.46875 0.265625 Z M 5.46875 -1.9375 C 6.125 -1.9375 6.597656 -2.21875 6.890625 -2.78125 C 7.179688 -3.34375 7.328125 -4.191406 7.328125 -5.328125 L 7.328125 -6.15625 C 7.328125 -7.289062 7.179688 -8.132812 6.890625 -8.6875 C 6.597656 -9.25 6.125 -9.53125 5.46875 -9.53125 C 4.820312 -9.53125 4.351562 -9.25 4.0625 -8.6875 C 3.769531 -8.132812 3.625 -7.289062 3.625 -6.15625 L 3.625 -5.328125 C 3.625 -4.191406 3.769531 -3.34375 4.0625 -2.78125 C 4.351562 -2.21875 4.820312 -1.9375 5.46875 -1.9375 Z M 5.46875 -1.9375 "/></g></g></g><g fill="#004438" fill-opacity="1"><g transform="translate(82.41106, 208.574386)"><g><path d="M 1.203125 -11.46875 L 3.375 -11.46875 L 3.6875 -9.796875 L 3.8125 -9.796875 C 4 -10.378906 4.242188 -10.847656 4.546875 -11.203125 C 4.859375 -11.554688 5.273438 -11.734375 5.796875 -11.734375 C 6.078125 -11.734375 6.316406 -11.707031 6.515625 -11.65625 C 6.722656 -11.601562 6.847656 -11.570312 6.890625 -11.5625 L 6.890625 -9.03125 L 5.953125 -9.03125 C 5.316406 -9.03125 4.800781 -8.828125 4.40625 -8.421875 C 4.007812 -8.015625 3.8125 -7.335938 3.8125 -6.390625 L 3.8125 0 L 1.203125 0 Z M 1.203125 -11.46875 "/></g></g></g><g fill="#004438" fill-opacity="1"><g transform="translate(89.367969, 208.574386)"><g><path d="M 4.0625 0.265625 C 3.101562 0.265625 2.410156 -0.0234375 1.984375 -0.609375 C 1.566406 -1.203125 1.359375 -1.9375 1.359375 -2.8125 L 1.359375 -9.265625 L 0.203125 -9.265625 L 0.203125 -11.46875 L 1.359375 -11.46875 L 1.75 -14.703125 L 3.96875 -14.703125 L 3.96875 -11.46875 L 5.625 -11.46875 L 5.625 -9.265625 L 3.96875 -9.265625 L 3.96875 -2.875 C 3.96875 -2.570312 4.046875 -2.335938 4.203125 -2.171875 C 4.367188 -2.015625 4.597656 -1.9375 4.890625 -1.9375 L 5.625 -1.9375 L 5.625 0 C 5.4375 0.0703125 5.1875 0.132812 4.875 0.1875 C 4.570312 0.238281 4.300781 0.265625 4.0625 0.265625 Z M 4.0625 0.265625 "/></g></g></g><g fill="#004438" fill-opacity="1"><g transform="translate(95.321688, 208.574386)"><g/></g></g><g fill="#004438" fill-opacity="1"><g transform="translate(100.294031, 208.574386)"><g><path d="M 3.1875 0.265625 C 2.46875 0.265625 1.804688 0.0195312 1.203125 -0.46875 C 0.609375 -0.957031 0.3125 -1.789062 0.3125 -2.96875 C 0.3125 -4.414062 0.800781 -5.445312 1.78125 -6.0625 C 2.769531 -6.675781 4.175781 -6.984375 6 -6.984375 L 6 -8.171875 C 6 -8.628906 5.914062 -8.976562 5.75 -9.21875 C 5.582031 -9.46875 5.265625 -9.59375 4.796875 -9.59375 C 4.316406 -9.59375 3.96875 -9.472656 3.75 -9.234375 C 3.53125 -8.992188 3.421875 -8.710938 3.421875 -8.390625 L 3.421875 -8.078125 L 0.875 -8.078125 C 0.851562 -8.160156 0.84375 -8.316406 0.84375 -8.546875 C 0.84375 -9.503906 1.195312 -10.273438 1.90625 -10.859375 C 2.613281 -11.441406 3.554688 -11.734375 4.734375 -11.734375 C 6.046875 -11.734375 7.023438 -11.441406 7.671875 -10.859375 C 8.316406 -10.273438 8.640625 -9.441406 8.640625 -8.359375 L 8.640625 -2.703125 C 8.640625 -2.441406 8.695312 -2.25 8.8125 -2.125 C 8.925781 -2 9.070312 -1.9375 9.25 -1.9375 L 9.765625 -1.9375 L 9.765625 -0.09375 C 9.335938 0.144531 8.820312 0.265625 8.21875 0.265625 C 7.707031 0.265625 7.273438 0.128906 6.921875 -0.140625 C 6.566406 -0.410156 6.320312 -0.78125 6.1875 -1.25 L 6.078125 -1.25 C 5.722656 -0.738281 5.328125 -0.359375 4.890625 -0.109375 C 4.460938 0.140625 3.894531 0.265625 3.1875 0.265625 Z M 4.28125 -1.921875 C 4.851562 -1.921875 5.28125 -2.148438 5.5625 -2.609375 C 5.851562 -3.078125 6 -3.679688 6 -4.421875 L 6 -5.078125 C 5.113281 -5.078125 4.390625 -4.9375 3.828125 -4.65625 C 3.265625 -4.375 2.984375 -3.890625 2.984375 -3.203125 C 2.984375 -2.796875 3.085938 -2.476562 3.296875 -2.25 C 3.515625 -2.03125 3.84375 -1.921875 4.28125 -1.921875 Z M 4.28125 -1.921875 "/></g></g></g><g fill="#004438" fill-opacity="1"><g transform="translate(110.238706, 208.574386)"><g><path d="M 1.203125 -11.46875 L 3.375 -11.46875 L 3.640625 -10.0625 L 3.78125 -10.0625 C 4.113281 -10.550781 4.519531 -10.953125 5 -11.265625 C 5.476562 -11.578125 6.035156 -11.734375 6.671875 -11.734375 C 7.617188 -11.734375 8.363281 -11.4375 8.90625 -10.84375 C 9.457031 -10.257812 9.734375 -9.328125 9.734375 -8.046875 L 9.734375 0 L 7.109375 0 L 7.109375 -7.328125 C 7.109375 -8.035156 6.976562 -8.550781 6.71875 -8.875 C 6.46875 -9.195312 6.097656 -9.359375 5.609375 -9.359375 C 5.097656 -9.359375 4.671875 -9.132812 4.328125 -8.6875 C 3.984375 -8.25 3.8125 -7.707031 3.8125 -7.0625 L 3.8125 0 L 1.203125 0 Z M 1.203125 -11.46875 "/></g></g></g><g fill="#004438" fill-opacity="1"><g transform="translate(121.164769, 208.574386)"><g><path d="M 4.578125 0.265625 C 3.410156 0.265625 2.503906 -0.226562 1.859375 -1.21875 C 1.210938 -2.21875 0.890625 -3.734375 0.890625 -5.765625 C 0.890625 -7.753906 1.210938 -9.242188 1.859375 -10.234375 C 2.503906 -11.234375 3.367188 -11.734375 4.453125 -11.734375 C 5.035156 -11.734375 5.554688 -11.601562 6.015625 -11.34375 C 6.472656 -11.09375 6.800781 -10.742188 7 -10.296875 L 7.109375 -10.296875 L 7.109375 -15.765625 L 9.734375 -15.765625 L 9.734375 0 L 7.546875 0 L 7.28125 -1.421875 L 7.171875 -1.421875 C 6.898438 -0.867188 6.535156 -0.445312 6.078125 -0.15625 C 5.628906 0.125 5.128906 0.265625 4.578125 0.265625 Z M 5.359375 -2.109375 C 5.972656 -2.109375 6.414062 -2.375 6.6875 -2.90625 C 6.96875 -3.4375 7.109375 -4.242188 7.109375 -5.328125 L 7.109375 -6.109375 C 7.109375 -7.179688 6.96875 -7.988281 6.6875 -8.53125 C 6.414062 -9.082031 5.972656 -9.359375 5.359375 -9.359375 C 4.753906 -9.359375 4.3125 -9.09375 4.03125 -8.5625 C 3.757812 -8.03125 3.625 -7.226562 3.625 -6.15625 L 3.625 -5.328125 C 3.625 -4.242188 3.757812 -3.4375 4.03125 -2.90625 C 4.3125 -2.375 4.753906 -2.109375 5.359375 -2.109375 Z M 5.359375 -2.109375 "/></g></g></g><g fill="#004438" fill-opacity="1"><g transform="translate(132.090832, 208.574386)"><g/></g></g><g fill="#004438" fill-opacity="1"><g transform="translate(137.063175, 208.574386)"><g><path d="M 1.3125 -14.96875 L 10.84375 -14.96875 L 10.84375 -12.484375 L 4.09375 -12.484375 L 4.09375 -8.90625 L 9.875 -8.90625 L 9.875 -6.40625 L 4.09375 -6.40625 L 4.09375 -2.484375 L 10.96875 -2.484375 L 10.96875 0 L 1.3125 0 Z M 1.3125 -14.96875 "/></g></g></g><g fill="#004438" fill-opacity="1"><g transform="translate(148.992427, 208.574386)"><g><path d="M 3.421875 -5.9375 L 0.375 -11.46875 L 3.34375 -11.46875 L 5.03125 -8.140625 L 5.140625 -8.140625 L 6.84375 -11.46875 L 9.65625 -11.46875 L 6.5625 -6 L 9.84375 0 L 6.890625 0 L 4.953125 -3.796875 L 4.84375 -3.796875 L 2.90625 0 L 0.109375 0 Z M 3.421875 -5.9375 "/></g></g></g><g fill="#004438" fill-opacity="1"><g transform="translate(158.937102, 208.574386)"><g><path d="M 1.203125 -11.46875 L 3.375 -11.46875 L 3.640625 -10.0625 L 3.75 -10.0625 C 4.03125 -10.613281 4.394531 -11.03125 4.84375 -11.3125 C 5.289062 -11.59375 5.789062 -11.734375 6.34375 -11.734375 C 7.507812 -11.734375 8.414062 -11.234375 9.0625 -10.234375 C 9.707031 -9.242188 10.03125 -7.738281 10.03125 -5.71875 C 10.03125 -3.71875 9.707031 -2.21875 9.0625 -1.21875 C 8.414062 -0.226562 7.554688 0.265625 6.484375 0.265625 C 5.898438 0.265625 5.378906 0.140625 4.921875 -0.109375 C 4.460938 -0.367188 4.128906 -0.722656 3.921875 -1.171875 L 3.8125 -1.171875 L 3.8125 3.78125 L 1.203125 3.78125 Z M 5.5625 -2.109375 C 6.175781 -2.109375 6.617188 -2.375 6.890625 -2.90625 C 7.171875 -3.4375 7.3125 -4.242188 7.3125 -5.328125 L 7.3125 -6.15625 C 7.3125 -7.226562 7.171875 -8.03125 6.890625 -8.5625 C 6.617188 -9.09375 6.175781 -9.359375 5.5625 -9.359375 C 4.945312 -9.359375 4.5 -9.09375 4.21875 -8.5625 C 3.945312 -8.03125 3.8125 -7.226562 3.8125 -6.15625 L 3.8125 -5.359375 C 3.8125 -4.285156 3.945312 -3.472656 4.21875 -2.921875 C 4.5 -2.378906 4.945312 -2.109375 5.5625 -2.109375 Z M 5.5625 -2.109375 "/></g></g></g><g fill="#004438" fill-opacity="1"><g transform="translate(169.863165, 208.574386)"><g><path d="M 5.46875 0.265625 C 3.925781 0.265625 2.773438 -0.21875 2.015625 -1.1875 C 1.265625 -2.164062 0.890625 -3.679688 0.890625 -5.734375 C 0.890625 -7.785156 1.265625 -9.296875 2.015625 -10.265625 C 2.773438 -11.242188 3.925781 -11.734375 5.46875 -11.734375 C 7.007812 -11.734375 8.160156 -11.242188 8.921875 -10.265625 C 9.679688 -9.296875 10.0625 -7.785156 10.0625 -5.734375 C 10.0625 -3.679688 9.679688 -2.164062 8.921875 -1.1875 C 8.160156 -0.21875 7.007812 0.265625 5.46875 0.265625 Z M 5.46875 -1.9375 C 6.125 -1.9375 6.597656 -2.21875 6.890625 -2.78125 C 7.179688 -3.34375 7.328125 -4.191406 7.328125 -5.328125 L 7.328125 -6.15625 C 7.328125 -7.289062 7.179688 -8.132812 6.890625 -8.6875 C 6.597656 -9.25 6.125 -9.53125 5.46875 -9.53125 C 4.820312 -9.53125 4.351562 -9.25 4.0625 -8.6875 C 3.769531 -8.132812 3.625 -7.289062 3.625 -6.15625 L 3.625 -5.328125 C 3.625 -4.191406 3.769531 -3.34375 4.0625 -2.78125 C 4.351562 -2.21875 4.820312 -1.9375 5.46875 -1.9375 Z M 5.46875 -1.9375 "/></g></g></g><g fill="#004438" fill-opacity="1"><g transform="translate(180.789227, 208.574386)"><g><path d="M 1.203125 -11.46875 L 3.375 -11.46875 L 3.6875 -9.796875 L 3.8125 -9.796875 C 4 -10.378906 4.242188 -10.847656 4.546875 -11.203125 C 4.859375 -11.554688 5.273438 -11.734375 5.796875 -11.734375 C 6.078125 -11.734375 6.316406 -11.707031 6.515625 -11.65625 C 6.722656 -11.601562 6.847656 -11.570312 6.890625 -11.5625 L 6.890625 -9.03125 L 5.953125 -9.03125 C 5.316406 -9.03125 4.800781 -8.828125 4.40625 -8.421875 C 4.007812 -8.015625 3.8125 -7.335938 3.8125 -6.390625 L 3.8125 0 L 1.203125 0 Z M 1.203125 -11.46875 "/></g></g></g><g fill="#004438" fill-opacity="1"><g transform="translate(187.746136, 208.574386)"><g><path d="M 4.0625 0.265625 C 3.101562 0.265625 2.410156 -0.0234375 1.984375 -0.609375 C 1.566406 -1.203125 1.359375 -1.9375 1.359375 -2.8125 L 1.359375 -9.265625 L 0.203125 -9.265625 L 0.203125 -11.46875 L 1.359375 -11.46875 L 1.75 -14.703125 L 3.96875 -14.703125 L 3.96875 -11.46875 L 5.625 -11.46875 L 5.625 -9.265625 L 3.96875 -9.265625 L 3.96875 -2.875 C 3.96875 -2.570312 4.046875 -2.335938 4.203125 -2.171875 C 4.367188 -2.015625 4.597656 -1.9375 4.890625 -1.9375 L 5.625 -1.9375 L 5.625 0 C 5.4375 0.0703125 5.1875 0.132812 4.875 0.1875 C 4.570312 0.238281 4.300781 0.265625 4.0625 0.265625 Z M 4.0625 0.265625 "/></g></g></g><g fill="#004438" fill-opacity="1"><g transform="translate(193.699856, 208.574386)"><g/></g></g><g fill="#004438" fill-opacity="1"><g transform="translate(198.672187, 208.574386)"><g><path d="M 5.828125 0.265625 C 4.878906 0.265625 4.007812 0.0859375 3.21875 -0.265625 C 2.4375 -0.628906 1.8125 -1.160156 1.34375 -1.859375 C 0.882812 -2.554688 0.65625 -3.398438 0.65625 -4.390625 L 0.671875 -4.859375 L 3.578125 -4.859375 L 3.5625 -4.515625 C 3.5625 -3.785156 3.769531 -3.207031 4.1875 -2.78125 C 4.613281 -2.351562 5.203125 -2.140625 5.953125 -2.140625 C 6.722656 -2.140625 7.289062 -2.304688 7.65625 -2.640625 C 8.03125 -2.984375 8.21875 -3.40625 8.21875 -3.90625 C 8.21875 -4.394531 8.085938 -4.796875 7.828125 -5.109375 C 7.566406 -5.421875 7.242188 -5.664062 6.859375 -5.84375 C 6.472656 -6.019531 5.929688 -6.222656 5.234375 -6.453125 C 4.316406 -6.742188 3.570312 -7.035156 3 -7.328125 C 2.4375 -7.617188 1.953125 -8.0625 1.546875 -8.65625 C 1.148438 -9.25 0.953125 -10.039062 0.953125 -11.03125 C 0.953125 -11.9375 1.175781 -12.703125 1.625 -13.328125 C 2.082031 -13.960938 2.6875 -14.4375 3.4375 -14.75 C 4.195312 -15.0625 5.035156 -15.21875 5.953125 -15.21875 C 7.378906 -15.21875 8.546875 -14.847656 9.453125 -14.109375 C 10.359375 -13.378906 10.8125 -12.28125 10.8125 -10.8125 L 10.8125 -10.5625 L 7.96875 -10.5625 L 7.96875 -10.75 C 7.96875 -11.394531 7.785156 -11.898438 7.421875 -12.265625 C 7.054688 -12.640625 6.5625 -12.828125 5.9375 -12.828125 C 5.28125 -12.828125 4.765625 -12.675781 4.390625 -12.375 C 4.023438 -12.082031 3.84375 -11.703125 3.84375 -11.234375 C 3.84375 -10.828125 3.960938 -10.492188 4.203125 -10.234375 C 4.453125 -9.972656 4.757812 -9.757812 5.125 -9.59375 C 5.5 -9.4375 6.015625 -9.253906 6.671875 -9.046875 C 7.617188 -8.742188 8.382812 -8.453125 8.96875 -8.171875 C 9.550781 -7.890625 10.050781 -7.445312 10.46875 -6.84375 C 10.894531 -6.25 11.109375 -5.46875 11.109375 -4.5 C 11.109375 -2.851562 10.632812 -1.644531 9.6875 -0.875 C 8.75 -0.113281 7.460938 0.265625 5.828125 0.265625 Z M 5.828125 0.265625 "/></g></g></g><g fill="#004438" fill-opacity="1"><g transform="translate(210.601439, 208.574386)"><g><path d="M 1.203125 -11.46875 L 3.375 -11.46875 L 3.640625 -10.0625 L 3.75 -10.0625 C 4.03125 -10.613281 4.394531 -11.03125 4.84375 -11.3125 C 5.289062 -11.59375 5.789062 -11.734375 6.34375 -11.734375 C 7.507812 -11.734375 8.414062 -11.234375 9.0625 -10.234375 C 9.707031 -9.242188 10.03125 -7.738281 10.03125 -5.71875 C 10.03125 -3.71875 9.707031 -2.21875 9.0625 -1.21875 C 8.414062 -0.226562 7.554688 0.265625 6.484375 0.265625 C 5.898438 0.265625 5.378906 0.140625 4.921875 -0.109375 C 4.460938 -0.367188 4.128906 -0.722656 3.921875 -1.171875 L 3.8125 -1.171875 L 3.8125 3.78125 L 1.203125 3.78125 Z M 5.5625 -2.109375 C 6.175781 -2.109375 6.617188 -2.375 6.890625 -2.90625 C 7.171875 -3.4375 7.3125 -4.242188 7.3125 -5.328125 L 7.3125 -6.15625 C 7.3125 -7.226562 7.171875 -8.03125 6.890625 -8.5625 C 6.617188 -9.09375 6.175781 -9.359375 5.5625 -9.359375 C 4.945312 -9.359375 4.5 -9.09375 4.21875 -8.5625 C 3.945312 -8.03125 3.8125 -7.226562 3.8125 -6.15625 L 3.8125 -5.359375 C 3.8125 -4.285156 3.945312 -3.472656 4.21875 -2.921875 C 4.5 -2.378906 4.945312 -2.109375 5.5625 -2.109375 Z M 5.5625 -2.109375 "/></g></g></g><g fill="#004438" fill-opacity="1"><g transform="translate(221.527502, 208.574386)"><g><path d="M 1.171875 -15.765625 L 3.796875 -15.765625 L 3.796875 -13.390625 L 1.171875 -13.390625 Z M 1.171875 -11.46875 L 3.796875 -11.46875 L 3.796875 0 L 1.171875 0 Z M 1.171875 -11.46875 "/></g></g></g><g fill="#004438" fill-opacity="1"><g transform="translate(226.499845, 208.574386)"><g><path d="M 5.234375 0.265625 C 3.734375 0.265625 2.632812 -0.21875 1.9375 -1.1875 C 1.238281 -2.15625 0.890625 -3.671875 0.890625 -5.734375 C 0.890625 -7.785156 1.242188 -9.296875 1.953125 -10.265625 C 2.660156 -11.242188 3.722656 -11.734375 5.140625 -11.734375 C 6.410156 -11.734375 7.394531 -11.359375 8.09375 -10.609375 C 8.800781 -9.859375 9.15625 -8.707031 9.15625 -7.15625 L 6.484375 -7.15625 C 6.484375 -8.738281 6.035156 -9.53125 5.140625 -9.53125 C 4.609375 -9.53125 4.222656 -9.25 3.984375 -8.6875 C 3.742188 -8.132812 3.625 -7.289062 3.625 -6.15625 L 3.625 -5.328125 C 3.625 -4.191406 3.75 -3.34375 4 -2.78125 C 4.257812 -2.21875 4.671875 -1.9375 5.234375 -1.9375 C 5.703125 -1.9375 6.039062 -2.132812 6.25 -2.53125 C 6.457031 -2.925781 6.5625 -3.519531 6.5625 -4.3125 L 9.15625 -4.3125 C 9.15625 -2.757812 8.8125 -1.609375 8.125 -0.859375 C 7.445312 -0.109375 6.484375 0.265625 5.234375 0.265625 Z M 5.234375 0.265625 "/></g></g></g><g fill="#004438" fill-opacity="1"><g transform="translate(236.444509, 208.574386)"><g><path d="M 5.171875 0.265625 C 3.671875 0.265625 2.546875 -0.222656 1.796875 -1.203125 C 1.046875 -2.191406 0.671875 -3.703125 0.671875 -5.734375 C 0.671875 -9.734375 2.140625 -11.734375 5.078125 -11.734375 C 6.472656 -11.734375 7.515625 -11.242188 8.203125 -10.265625 C 8.890625 -9.296875 9.234375 -7.785156 9.234375 -5.734375 L 9.234375 -5.078125 L 3.40625 -5.078125 C 3.414062 -4.003906 3.554688 -3.203125 3.828125 -2.671875 C 4.097656 -2.140625 4.546875 -1.875 5.171875 -1.875 C 5.617188 -1.875 5.972656 -2.066406 6.234375 -2.453125 C 6.492188 -2.835938 6.625 -3.375 6.625 -4.0625 L 9.234375 -4.0625 C 9.234375 -2.632812 8.859375 -1.554688 8.109375 -0.828125 C 7.367188 -0.0976562 6.390625 0.265625 5.171875 0.265625 Z M 6.484375 -6.984375 C 6.484375 -8.722656 6.015625 -9.59375 5.078125 -9.59375 C 4.546875 -9.59375 4.144531 -9.367188 3.875 -8.921875 C 3.613281 -8.484375 3.460938 -7.835938 3.421875 -6.984375 Z M 6.484375 -6.984375 "/></g></g></g><g fill="#004438" fill-opacity="1"><g transform="translate(246.389195, 208.574386)"><g><path d="M 4.890625 0.265625 C 3.578125 0.265625 2.550781 -0.0625 1.8125 -0.71875 C 1.082031 -1.382812 0.71875 -2.269531 0.71875 -3.375 L 0.734375 -3.640625 L 3.40625 -3.640625 L 3.40625 -3.484375 C 3.414062 -2.921875 3.570312 -2.507812 3.875 -2.25 C 4.1875 -2 4.550781 -1.875 4.96875 -1.875 C 5.375 -1.875 5.726562 -1.972656 6.03125 -2.171875 C 6.34375 -2.367188 6.5 -2.6875 6.5 -3.125 C 6.5 -3.582031 6.320312 -3.914062 5.96875 -4.125 C 5.625 -4.34375 5.070312 -4.550781 4.3125 -4.75 C 3.59375 -4.957031 3.003906 -5.160156 2.546875 -5.359375 C 2.097656 -5.566406 1.707031 -5.898438 1.375 -6.359375 C 1.050781 -6.828125 0.890625 -7.457031 0.890625 -8.25 C 0.890625 -9.363281 1.269531 -10.222656 2.03125 -10.828125 C 2.800781 -11.429688 3.789062 -11.734375 5 -11.734375 C 6.113281 -11.734375 7.035156 -11.453125 7.765625 -10.890625 C 8.503906 -10.335938 8.875 -9.578125 8.875 -8.609375 L 8.859375 -8.109375 L 6.1875 -8.109375 L 6.1875 -8.15625 C 6.175781 -9.113281 5.75 -9.59375 4.90625 -9.59375 C 4.5 -9.59375 4.171875 -9.488281 3.921875 -9.28125 C 3.679688 -9.082031 3.5625 -8.8125 3.5625 -8.46875 C 3.5625 -8.0625 3.726562 -7.765625 4.0625 -7.578125 C 4.394531 -7.398438 4.914062 -7.21875 5.625 -7.03125 C 6.363281 -6.832031 6.96875 -6.628906 7.4375 -6.421875 C 7.90625 -6.210938 8.304688 -5.867188 8.640625 -5.390625 C 8.984375 -4.921875 9.15625 -4.273438 9.15625 -3.453125 C 9.15625 -0.972656 7.734375 0.265625 4.890625 0.265625 Z M 4.890625 0.265625 "/></g></g></g><g fill="#004438" fill-opacity="1"><g transform="translate(256.333881, 208.574386)"><g/></g></g><g fill="#004438" fill-opacity="1"><g transform="translate(261.306224, 208.574386)"><g><path d="M 3.1875 0.265625 C 2.46875 0.265625 1.804688 0.0195312 1.203125 -0.46875 C 0.609375 -0.957031 0.3125 -1.789062 0.3125 -2.96875 C 0.3125 -4.414062 0.800781 -5.445312 1.78125 -6.0625 C 2.769531 -6.675781 4.175781 -6.984375 6 -6.984375 L 6 -8.171875 C 6 -8.628906 5.914062 -8.976562 5.75 -9.21875 C 5.582031 -9.46875 5.265625 -9.59375 4.796875 -9.59375 C 4.316406 -9.59375 3.96875 -9.472656 3.75 -9.234375 C 3.53125 -8.992188 3.421875 -8.710938 3.421875 -8.390625 L 3.421875 -8.078125 L 0.875 -8.078125 C 0.851562 -8.160156 0.84375 -8.316406 0.84375 -8.546875 C 0.84375 -9.503906 1.195312 -10.273438 1.90625 -10.859375 C 2.613281 -11.441406 3.554688 -11.734375 4.734375 -11.734375 C 6.046875 -11.734375 7.023438 -11.441406 7.671875 -10.859375 C 8.316406 -10.273438 8.640625 -9.441406 8.640625 -8.359375 L 8.640625 -2.703125 C 8.640625 -2.441406 8.695312 -2.25 8.8125 -2.125 C 8.925781 -2 9.070312 -1.9375 9.25 -1.9375 L 9.765625 -1.9375 L 9.765625 -0.09375 C 9.335938 0.144531 8.820312 0.265625 8.21875 0.265625 C 7.707031 0.265625 7.273438 0.128906 6.921875 -0.140625 C 6.566406 -0.410156 6.320312 -0.78125 6.1875 -1.25 L 6.078125 -1.25 C 5.722656 -0.738281 5.328125 -0.359375 4.890625 -0.109375 C 4.460938 0.140625 3.894531 0.265625 3.1875 0.265625 Z M 4.28125 -1.921875 C 4.851562 -1.921875 5.28125 -2.148438 5.5625 -2.609375 C 5.851562 -3.078125 6 -3.679688 6 -4.421875 L 6 -5.078125 C 5.113281 -5.078125 4.390625 -4.9375 3.828125 -4.65625 C 3.265625 -4.375 2.984375 -3.890625 2.984375 -3.203125 C 2.984375 -2.796875 3.085938 -2.476562 3.296875 -2.25 C 3.515625 -2.03125 3.84375 -1.921875 4.28125 -1.921875 Z M 4.28125 -1.921875 "/></g></g></g><g fill="#004438" fill-opacity="1"><g transform="translate(271.250888, 208.574386)"><g><path d="M 1.203125 -11.46875 L 3.375 -11.46875 L 3.640625 -10.0625 L 3.78125 -10.0625 C 4.113281 -10.550781 4.519531 -10.953125 5 -11.265625 C 5.476562 -11.578125 6.035156 -11.734375 6.671875 -11.734375 C 7.617188 -11.734375 8.363281 -11.4375 8.90625 -10.84375 C 9.457031 -10.257812 9.734375 -9.328125 9.734375 -8.046875 L 9.734375 0 L 7.109375 0 L 7.109375 -7.328125 C 7.109375 -8.035156 6.976562 -8.550781 6.71875 -8.875 C 6.46875 -9.195312 6.097656 -9.359375 5.609375 -9.359375 C 5.097656 -9.359375 4.671875 -9.132812 4.328125 -8.6875 C 3.984375 -8.25 3.8125 -7.707031 3.8125 -7.0625 L 3.8125 0 L 1.203125 0 Z M 1.203125 -11.46875 "/></g></g></g><g fill="#004438" fill-opacity="1"><g transform="translate(282.17695, 208.574386)"><g><path d="M 4.578125 0.265625 C 3.410156 0.265625 2.503906 -0.226562 1.859375 -1.21875 C 1.210938 -2.21875 0.890625 -3.734375 0.890625 -5.765625 C 0.890625 -7.753906 1.210938 -9.242188 1.859375 -10.234375 C 2.503906 -11.234375 3.367188 -11.734375 4.453125 -11.734375 C 5.035156 -11.734375 5.554688 -11.601562 6.015625 -11.34375 C 6.472656 -11.09375 6.800781 -10.742188 7 -10.296875 L 7.109375 -10.296875 L 7.109375 -15.765625 L 9.734375 -15.765625 L 9.734375 0 L 7.546875 0 L 7.28125 -1.421875 L 7.171875 -1.421875 C 6.898438 -0.867188 6.535156 -0.445312 6.078125 -0.15625 C 5.628906 0.125 5.128906 0.265625 4.578125 0.265625 Z M 5.359375 -2.109375 C 5.972656 -2.109375 6.414062 -2.375 6.6875 -2.90625 C 6.96875 -3.4375 7.109375 -4.242188 7.109375 -5.328125 L 7.109375 -6.109375 C 7.109375 -7.179688 6.96875 -7.988281 6.6875 -8.53125 C 6.414062 -9.082031 5.972656 -9.359375 5.359375 -9.359375 C 4.753906 -9.359375 4.3125 -9.09375 4.03125 -8.5625 C 3.757812 -8.03125 3.625 -7.226562 3.625 -6.15625 L 3.625 -5.328125 C 3.625 -4.242188 3.757812 -3.4375 4.03125 -2.90625 C 4.3125 -2.375 4.753906 -2.109375 5.359375 -2.109375 Z M 5.359375 -2.109375 "/></g></g></g><g fill="#004438" fill-opacity="1"><g transform="translate(293.103013, 208.574386)"><g/></g></g><g fill="#004438" fill-opacity="1"><g transform="translate(298.075356, 208.574386)"><g><path d="M 1.3125 -14.96875 L 4.09375 -14.96875 L 4.09375 -8.90625 L 8.8125 -8.90625 L 8.8125 -14.96875 L 11.609375 -14.96875 L 11.609375 0 L 8.8125 0 L 8.8125 -6.40625 L 4.09375 -6.40625 L 4.09375 0 L 1.3125 0 Z M 1.3125 -14.96875 "/></g></g></g><g fill="#004438" fill-opacity="1"><g transform="translate(310.986008, 208.574386)"><g><path d="M 5.171875 0.265625 C 3.671875 0.265625 2.546875 -0.222656 1.796875 -1.203125 C 1.046875 -2.191406 0.671875 -3.703125 0.671875 -5.734375 C 0.671875 -9.734375 2.140625 -11.734375 5.078125 -11.734375 C 6.472656 -11.734375 7.515625 -11.242188 8.203125 -10.265625 C 8.890625 -9.296875 9.234375 -7.785156 9.234375 -5.734375 L 9.234375 -5.078125 L 3.40625 -5.078125 C 3.414062 -4.003906 3.554688 -3.203125 3.828125 -2.671875 C 4.097656 -2.140625 4.546875 -1.875 5.171875 -1.875 C 5.617188 -1.875 5.972656 -2.066406 6.234375 -2.453125 C 6.492188 -2.835938 6.625 -3.375 6.625 -4.0625 L 9.234375 -4.0625 C 9.234375 -2.632812 8.859375 -1.554688 8.109375 -0.828125 C 7.367188 -0.0976562 6.390625 0.265625 5.171875 0.265625 Z M 6.484375 -6.984375 C 6.484375 -8.722656 6.015625 -9.59375 5.078125 -9.59375 C 4.546875 -9.59375 4.144531 -9.367188 3.875 -8.921875 C 3.613281 -8.484375 3.460938 -7.835938 3.421875 -6.984375 Z M 6.484375 -6.984375 "/></g></g></g><g fill="#004438" fill-opacity="1"><g transform="translate(320.930694, 208.574386)"><g><path d="M 1.203125 -11.46875 L 3.375 -11.46875 L 3.6875 -9.796875 L 3.8125 -9.796875 C 4 -10.378906 4.242188 -10.847656 4.546875 -11.203125 C 4.859375 -11.554688 5.273438 -11.734375 5.796875 -11.734375 C 6.078125 -11.734375 6.316406 -11.707031 6.515625 -11.65625 C 6.722656 -11.601562 6.847656 -11.570312 6.890625 -11.5625 L 6.890625 -9.03125 L 5.953125 -9.03125 C 5.316406 -9.03125 4.800781 -8.828125 4.40625 -8.421875 C 4.007812 -8.015625 3.8125 -7.335938 3.8125 -6.390625 L 3.8125 0 L 1.203125 0 Z M 1.203125 -11.46875 "/></g></g></g><g fill="#004438" fill-opacity="1"><g transform="translate(327.887603, 208.574386)"><g><path d="M 6.34375 0.265625 C 5.789062 0.265625 5.289062 0.125 4.84375 -0.15625 C 4.394531 -0.445312 4.03125 -0.867188 3.75 -1.421875 L 3.640625 -1.421875 L 3.375 0 L 1.203125 0 L 1.203125 -15.765625 L 3.8125 -15.765625 L 3.8125 -10.296875 L 3.921875 -10.296875 C 4.128906 -10.742188 4.460938 -11.09375 4.921875 -11.34375 C 5.378906 -11.601562 5.898438 -11.734375 6.484375 -11.734375 C 7.554688 -11.734375 8.414062 -11.234375 9.0625 -10.234375 C 9.707031 -9.242188 10.03125 -7.753906 10.03125 -5.765625 C 10.03125 -3.734375 9.707031 -2.21875 9.0625 -1.21875 C 8.414062 -0.226562 7.507812 0.265625 6.34375 0.265625 Z M 5.5625 -2.109375 C 6.175781 -2.109375 6.617188 -2.375 6.890625 -2.90625 C 7.171875 -3.4375 7.3125 -4.242188 7.3125 -5.328125 L 7.3125 -6.15625 C 7.3125 -7.226562 7.171875 -8.03125 6.890625 -8.5625 C 6.617188 -9.09375 6.175781 -9.359375 5.5625 -9.359375 C 4.945312 -9.359375 4.5 -9.082031 4.21875 -8.53125 C 3.945312 -7.988281 3.8125 -7.179688 3.8125 -6.109375 L 3.8125 -5.328125 C 3.8125 -4.242188 3.945312 -3.4375 4.21875 -2.90625 C 4.5 -2.375 4.945312 -2.109375 5.5625 -2.109375 Z M 5.5625 -2.109375 "/></g></g></g><g fill="#004438" fill-opacity="1"><g transform="translate(338.813665, 208.574386)"><g><path d="M 4.890625 0.265625 C 3.578125 0.265625 2.550781 -0.0625 1.8125 -0.71875 C 1.082031 -1.382812 0.71875 -2.269531 0.71875 -3.375 L 0.734375 -3.640625 L 3.40625 -3.640625 L 3.40625 -3.484375 C 3.414062 -2.921875 3.570312 -2.507812 3.875 -2.25 C 4.1875 -2 4.550781 -1.875 4.96875 -1.875 C 5.375 -1.875 5.726562 -1.972656 6.03125 -2.171875 C 6.34375 -2.367188 6.5 -2.6875 6.5 -3.125 C 6.5 -3.582031 6.320312 -3.914062 5.96875 -4.125 C 5.625 -4.34375 5.070312 -4.550781 4.3125 -4.75 C 3.59375 -4.957031 3.003906 -5.160156 2.546875 -5.359375 C 2.097656 -5.566406 1.707031 -5.898438 1.375 -6.359375 C 1.050781 -6.828125 0.890625 -7.457031 0.890625 -8.25 C 0.890625 -9.363281 1.269531 -10.222656 2.03125 -10.828125 C 2.800781 -11.429688 3.789062 -11.734375 5 -11.734375 C 6.113281 -11.734375 7.035156 -11.453125 7.765625 -10.890625 C 8.503906 -10.335938 8.875 -9.578125 8.875 -8.609375 L 8.859375 -8.109375 L 6.1875 -8.109375 L 6.1875 -8.15625 C 6.175781 -9.113281 5.75 -9.59375 4.90625 -9.59375 C 4.5 -9.59375 4.171875 -9.488281 3.921875 -9.28125 C 3.679688 -9.082031 3.5625 -8.8125 3.5625 -8.46875 C 3.5625 -8.0625 3.726562 -7.765625 4.0625 -7.578125 C 4.394531 -7.398438 4.914062 -7.21875 5.625 -7.03125 C 6.363281 -6.832031 6.96875 -6.628906 7.4375 -6.421875 C 7.90625 -6.210938 8.304688 -5.867188 8.640625 -5.390625 C 8.984375 -4.921875 9.15625 -4.273438 9.15625 -3.453125 C 9.15625 -0.972656 7.734375 0.265625 4.890625 0.265625 Z M 4.890625 0.265625 "/></g></g></g><g fill="#004438" fill-opacity="1"><g transform="translate(348.762269, 208.574386)"><g/></g></g></svg>