<svg xmlns="http://www.w3.org/2000/svg" xmlns:xlink="http://www.w3.org/1999/xlink" width="500" zoomAndPan="magnify" viewBox="0 0 375 374.999991" height="500" preserveAspectRatio="xMidYMid meet" version="1.0"><defs><clipPath id="0170e1ba50"><path d="M 189 87 L 369.855469 87 L 369.855469 231 L 189 231 Z M 189 87 " clip-rule="nonzero"/></clipPath><clipPath id="3548ae4d0c"><path d="M 5.128906 87 L 186 87 L 186 231 L 5.128906 231 Z M 5.128906 87 " clip-rule="nonzero"/></clipPath></defs><g clip-path="url(#0170e1ba50)"><path fill="#96d876" d="M 329.472656 106.976562 C 243.292969 106.589844 197.027344 146.824219 193.070312 230.117188 C 193.019531 231.164062 191.488281 231.222656 191.34375 230.183594 C 187.496094 202.96875 188.242188 178.167969 195.148438 156.609375 C 217.945312 85.453125 304.902344 76.117188 366.601562 98.636719 C 369.679688 99.761719 370.300781 103.726562 367.746094 105.773438 C 319.617188 144.253906 326.167969 249.285156 209.027344 203.765625 C 227.320312 146.910156 264.832031 111.675781 329.472656 106.976562 " fill-opacity="1" fill-rule="evenodd"/></g><g clip-path="url(#3548ae4d0c)"><path fill="#96d876" d="M 45.507812 106.976562 C 131.6875 106.589844 177.953125 146.824219 181.914062 230.117188 C 181.960938 231.164062 183.496094 231.222656 183.640625 230.183594 C 187.484375 202.96875 186.742188 178.167969 179.835938 156.609375 C 157.035156 85.453125 70.078125 76.117188 8.378906 98.636719 C 5.304688 99.761719 4.683594 103.726562 7.238281 105.773438 C 55.367188 144.253906 48.816406 249.285156 165.957031 203.765625 C 147.660156 146.910156 110.152344 111.675781 45.507812 106.976562 " fill-opacity="1" fill-rule="evenodd"/></g></svg>